PathFileType	4	(X/Y/Z)	s06c0202.trc
DataRate	CameraRate	NumFrames	NumMarkers	Units	OrigDataRate	OrigDataStartFrame	OrigNumFrames
200	200	4	48	mm	200	1750	2000
Frame#	Time	racr			lacr			c7			jug			rlel			rdr			llel			ldr			s2			lic			ric			lasi			rasi			rpsi			lpsi			rgt			lgt			rth1			rth2			rth3			rth4			rlfc			rmfc			rsh1			rsh2			rsh3			rsh4			rlmal			rcal			rtoe			rmt5			lth1			lth2			lth4			lth3			llfc			lmfc			llmal			lcal			lmt5			lsh1			lsh2			lsh3			lsh4			ltoe			SBIKE			LBIKE			RBIKE			
		X1	Y1	Z1	X2	Y2	Z2	X3	Y3	Z3	X4	Y4	Z4	X5	Y5	Z5	X6	Y6	Z6	X7	Y7	Z7	X8	Y8	Z8	X9	Y9	Z9	X10	Y10	Z10	X11	Y11	Z11	X12	Y12	Z12	X13	Y13	Z13	X14	Y14	Z14	X15	Y15	Z15	X16	Y16	Z16	X17	Y17	Z17	X18	Y18	Z18	X19	Y19	Z19	X20	Y20	Z20	X21	Y21	Z21	X22	Y22	Z22	X23	Y23	Z23	X24	Y24	Z24	X25	Y25	Z25	X26	Y26	Z26	X27	Y27	Z27	X28	Y28	Z28	X29	Y29	Z29	X30	Y30	Z30	X31	Y31	Z31	X32	Y32	Z32	X33	Y33	Z33	X34	Y34	Z34	X35	Y35	Z35	X36	Y36	Z36	X37	Y37	Z37	X38	Y38	Z38	X39	Y39	Z39	X40	Y40	Z40	X41	Y41	Z41	X42	Y42	Z42	X43	Y43	Z43	X44	Y44	Z44	X45	Y45	Z45	X46	Y46	Z46	X47	Y47	Z47	X48	Y48	Z48	
1750	8.7500	544.039465	1211.003762	-88.540917	551.611611	1189.764854	-403.190702	550.995139	1298.443573	-247.283971	523.744147	1137.759072	-238.278646	477.463760	992.551560	55.487291	651.159005	911.302080	-61.912595	462.860032	954.716111	-510.350710	651.755629	912.940940	-392.824573	-3.448068	1137.255770	-210.243106	142.033381	1088.001343	-394.175944	151.453740	1097.233435	-53.621423	158.967939	1036.981823	-352.133061	173.739414	1054.799931	-92.127502	31.924293	1172.155090	-179.719152	30.194314	1170.630896	-239.659295	115.200766	1012.173533	-13.376992	120.496795	1034.802995	-412.672591	208.231526	919.791275	-12.416479	282.571107	866.637085	-21.786434	317.352245	787.187408	-27.982963	305.199585	889.886239	-40.421940	340.436296	691.984509	-52.419164	319.468831	676.132559	-160.895384	250.312740	609.697993	-28.086971	194.501290	546.776178	-51.398256	113.324199	512.089987	-52.945348	207.587100	534.350958	-87.923088	39.953047	474.575777	-56.244790	-25.237505	496.433176	-104.585682	150.227252	282.582461	-96.764847	67.780046	341.129734	-30.548910	186.236278	934.075172	-420.978356	263.262838	893.578340	-415.620254	287.686424	919.803637	-404.122981	310.302686	817.898137	-410.427449	365.117333	712.981334	-387.818403	372.878930	695.754171	-275.954942	259.101991	356.192343	-378.640256	187.929298	313.828099	-330.356766	383.375775	312.349848	-408.050272	339.045187	606.750486	-407.849171	334.435704	522.212608	-386.681466	289.913266	445.873255	-385.711676	359.832542	519.472003	-356.349035	467.704859	335.483730	-350.644332	-202.676912	865.728108	-215.025866	-49.171695	79.739219	-415.243924	-49.174226	79.663797	-17.700517	
1751	8.7550	544.035485	1211.460494	-88.370961	551.799344	1190.334385	-403.045155	551.227600	1298.798119	-247.115317	524.194227	1138.296663	-237.915352	477.727246	993.095582	56.329738	651.324216	911.726891	-61.328396	462.228277	954.960122	-509.749135	651.606483	912.586892	-392.860470	-3.540814	1138.461333	-208.963323	141.720028	1088.475686	-394.077811	150.773691	1099.155943	-52.740653	159.100472	1037.575724	-351.816349	173.524915	1055.816585	-92.498598	32.312053	1172.863322	-180.223170	30.552138	1171.259910	-239.911827	115.663558	1014.572758	-13.126624	120.077577	1033.744348	-412.439681	209.924894	924.155540	-11.907435	285.329941	872.659506	-21.319889	322.021163	794.119736	-27.058875	307.181003	896.210611	-40.858021	345.612237	699.318612	-51.566151	324.207478	683.055865	-159.970197	254.433339	617.541728	-27.523742	197.799131	555.427758	-50.849235	116.070041	521.839543	-52.677227	210.728782	542.758423	-87.390340	42.406140	485.292939	-56.194672	-22.897911	507.524497	-104.766394	151.668834	292.995337	-96.864817	69.560294	351.751141	-30.592044	185.373201	929.612094	-421.650242	260.850165	886.483882	-415.680436	286.204203	911.937470	-404.356883	305.141443	809.281755	-409.648078	357.989541	704.048479	-387.623235	365.195645	687.346245	-275.744483	257.395880	345.522268	-378.790944	186.391037	303.465255	-330.572234	381.920663	301.480742	-407.845905	333.179554	597.493209	-408.327502	330.014809	512.959398	-386.829470	286.760197	435.875458	-385.786379	355.482118	510.683309	-356.593543	466.359388	325.054301	-351.016244	-202.711213	865.729000	-215.097273	-49.180806	79.764373	-415.240022	-49.185580	79.681975	-17.703182	
1752	8.7600	544.088476	1211.932530	-88.120910	552.128422	1190.702718	-402.739106	551.575729	1299.168801	-246.831257	524.554061	1138.896776	-237.600085	478.045346	993.614333	57.266131	651.484560	912.055460	-60.925038	461.799319	955.040352	-508.823630	651.522972	912.195941	-392.812449	-2.868125	1139.351495	-209.713708	141.523355	1089.277289	-394.093688	150.869174	1100.441598	-53.618032	159.607198	1038.673895	-351.512350	172.727308	1057.733167	-93.732937	32.824725	1173.756585	-180.767695	31.060578	1172.138031	-240.444365	115.924324	1017.471472	-13.022963	120.117508	1033.059893	-412.126625	211.401298	929.086128	-11.745812	287.283529	879.339763	-21.035494	326.537917	801.511236	-25.971170	309.034536	903.082359	-41.393169	350.838125	706.791823	-50.768726	329.067732	689.181655	-159.255182	258.609672	625.556533	-27.024422	201.301801	564.141773	-50.419931	119.289655	531.695631	-52.412754	214.109650	550.788482	-87.286893	45.300771	495.883883	-56.169387	-20.509090	518.322831	-105.190577	153.914892	303.353345	-96.986499	71.984019	362.452799	-30.651824	184.181170	925.341745	-422.455984	258.065724	879.748240	-415.697785	284.254951	904.358667	-404.564693	299.644575	801.110262	-408.924875	350.589109	695.651841	-387.482106	357.004847	679.223675	-275.394276	255.155453	335.251067	-378.997161	184.325916	293.387341	-330.832903	379.889838	290.778416	-407.726200	327.281300	588.367522	-408.592609	325.366890	504.003026	-386.943621	283.252733	426.269622	-385.836722	350.771275	502.174756	-356.569248	464.173967	313.416978	-350.086934	-202.735853	865.745656	-215.173316	-49.185758	79.757821	-415.247712	-49.185856	79.690420	-17.720515	
1753	8.7650	544.188134	1212.364940	-87.815932	552.561243	1190.895724	-402.260859	551.978449	1299.587614	-246.468368	524.827061	1139.453916	-237.322860	478.663381	993.943678	58.370380	651.667872	912.367148	-60.713601	461.415243	955.357366	-508.466293	651.417295	911.956590	-393.029140	-2.162717	1140.282675	-210.689739	141.567468	1090.300223	-394.434172	150.551266	1101.769097	-54.523265	160.581832	1040.105162	-351.513106	172.511494	1059.830385	-94.468246	33.289823	1174.781743	-181.732809	31.684260	1172.914529	-241.347023	116.080739	1020.785060	-13.011436	120.429152	1032.537973	-411.845067	212.581359	934.599472	-11.911312	289.472590	886.231534	-20.923861	330.085534	809.594324	-25.166026	310.644803	910.393312	-41.878437	356.199372	714.522753	-49.874129	339.412711	698.012384	-159.288723	262.694350	634.092108	-26.240938	205.343167	573.027402	-50.017419	122.789797	541.652503	-52.134224	217.890932	559.554055	-87.003610	48.460517	506.787019	-56.000166	-17.321711	528.965422	-105.339847	156.738786	313.742026	-97.176942	74.944964	373.053999	-30.814622	182.575928	921.377347	-423.646302	254.866470	873.464060	-415.666445	281.742185	897.337648	-404.698755	293.793241	793.302443	-408.010648	343.043403	687.638877	-387.233621	348.587318	671.198112	-274.401707	252.440579	325.387257	-379.139362	181.657324	283.990794	-331.062092	377.340546	280.280342	-407.540704	321.188739	579.890398	-408.694268	320.406678	495.352666	-386.940544	279.291118	417.167787	-385.795750	345.663835	493.920298	-356.381233	461.663150	302.471842	-349.739381	-202.749115	865.734587	-215.275910	-49.177272	79.758472	-415.260777	-49.181329	79.694029	-17.716594	
